<?xml version="1.0" encoding="utf-8"?><!DOCTYPE svg PUBLIC "-//W3C//DTD SVG 1.1//EN" "http://www.w3.org/Graphics/SVG/1.1/DTD/svg11.dtd"><svg xmlns="http://www.w3.org/2000/svg" xmlns:xlink="http://www.w3.org/1999/xlink"><symbol viewBox="0 0 24 24" id="check" xmlns="http://www.w3.org/2000/svg"><path d="M21 21v-5h1v6h-6v-1zM3 21v-5H2v6h6v-1zM8 3V2H2v6h1V3zm13 0v5h1V2h-6v1zm-2.646 5.354-.707-.707-7.147 7.146-3.146-3.147-.707.707 3.853 3.854z"/><path fill="none" d="M0 0h24v24H0z"/></symbol><symbol viewBox="0 0 24 24" fill="none" id="check-circle" xmlns="http://www.w3.org/2000/svg"><path d="m8.5 12.5 2 2 5-5" stroke="#1C274C" stroke-width="1.5" stroke-linecap="round" stroke-linejoin="round"/><path d="M7 3.338A9.954 9.954 0 0 1 12 2c5.523 0 10 4.477 10 10s-4.477 10-10 10S2 17.523 2 12c0-1.821.487-3.53 1.338-5" stroke="#1C274C" stroke-width="1.5" stroke-linecap="round"/></symbol><symbol viewBox="0 0 24 24" fill="none" id="close-circle" xmlns="http://www.w3.org/2000/svg"><path d="m14.5 9.5-5 5m0-5 5 5M7 3.338A9.954 9.954 0 0 1 12 2c5.523 0 10 4.477 10 10s-4.477 10-10 10S2 17.523 2 12c0-1.821.487-3.53 1.338-5" stroke="#1C274C" stroke-width="1.5" stroke-linecap="round"/></symbol><symbol viewBox="0 0 24 24" fill="none" stroke="#000" stroke-width="0" id="collections-add-svgrepo-com" xmlns="http://www.w3.org/2000/svg"><g fill="#212121" stroke="none"><path d="m11.066 8.004.184-.005h7.5a3.25 3.25 0 0 1 3.245 3.065l.005.185v1.56a6.518 6.518 0 0 0-1.5-1.077v-.483a1.75 1.75 0 0 0-1.75-1.75h-7.5a1.75 1.75 0 0 0-1.744 1.606l-.006.144v7.5a1.75 1.75 0 0 0 1.607 1.744l.143.006h.482c.287.55.65 1.055 1.076 1.5H11.25a3.25 3.25 0 0 1-3.245-3.066L8 18.75v-7.5a3.25 3.25 0 0 1 3.066-3.245Z"/><path d="m15.582 4.233.052.177.693 2.588h-1.553l-.588-2.2a1.75 1.75 0 0 0-2.144-1.238L4.798 5.502a1.75 1.75 0 0 0-1.27 1.995l.032.148 1.942 7.244A1.75 1.75 0 0 0 7 16.176v1.506a3.252 3.252 0 0 1-2.895-2.228l-.052-.176-1.941-7.245a3.25 3.25 0 0 1 2.12-3.928l.178-.052 7.244-1.941a3.25 3.25 0 0 1 3.928 2.12ZM23 17.5a5.5 5.5 0 1 0-11 0 5.5 5.5 0 0 0 11 0Zm-5.59-3.493L17.5 14l.09.008a.5.5 0 0 1 .402.402l.008.09V17l2.505.001.09.008a.5.5 0 0 1 .402.402l.008.09-.008.09a.5.5 0 0 1-.403.402l-.09.008h-2.503v2.503l-.008.09a.5.5 0 0 1-.402.402l-.09.008-.09-.008a.5.5 0 0 1-.402-.402l-.008-.09V18L14.498 18l-.09-.008a.5.5 0 0 1-.402-.402l-.008-.09.008-.09a.5.5 0 0 1 .402-.402l.09-.008H17v-2.5l.008-.09a.5.5 0 0 1 .402-.403Z"/></g></symbol><symbol viewBox="0 0 60 60" xml:space="preserve" fill="currentColor" id="create-credit" xmlns="http://www.w3.org/2000/svg"><g fill="none" stroke-width="2.1" stroke-linecap="round" stroke-linejoin="round" stroke-miterlimit="10"><path stroke="currentColor" d="M32.594 13.253H2v39.825h47.88V30.414"/><g stroke="currentColor"><path d="M49.88 4.633v17.24M58.5 13.253H41.26"/></g><g stroke="#aaa"><path d="M12.235 28.077H31.87M12.235 38.254h27.41"/></g></g></symbol><symbol viewBox="0 0 21 21" stroke="#000" stroke-width=".735" id="create-gage" xmlns="http://www.w3.org/2000/svg"><g fill="none" fill-rule="evenodd" stroke="currentColor" stroke-linecap="round" stroke-linejoin="round"><path d="M10 4.5H5.5a2 2 0 0 0-2 2v9a2 2 0 0 0 2 2h10a2 2 0 0 0 2-2V11"/><path d="M17.5 3.467a1.462 1.462 0 0 1-.017 2.05L10.5 12.5l-3 1 1-3 6.987-7.046a1.409 1.409 0 0 1 1.885-.104zM15.5 5.5l.953 1"/></g></symbol><symbol viewBox="0 0 24 24" stroke="currentColor" stroke-linecap="square" fill="transparent" color="currentColor" id="history" xmlns="http://www.w3.org/2000/svg"><path d="m1 12 2 2 2-2M12 7v5l3 3"/><path d="M12 21a9 9 0 1 0-9-9v1"/></symbol><symbol viewBox="0 0 30 30" id="home" xmlns="http://www.w3.org/2000/svg"><path d="M15 2a.624.624 0 0 0-.217.05L.28 9.044c-.603.29-.127 1.17.434.902L15 3.055l14.286 6.892c.583.28 1.026-.618.434-.902L15.217 2.05A.404.404 0 0 0 15 2zM2.5 11a.5.5 0 0 0-.5.5v15c0 .822.678 1.5 1.5 1.5h7a.5.5 0 0 0 .5-.5v-7.497c0-2.223 1.775-3.998 4-3.998s4 1.775 4 3.998V27.5a.5.5 0 0 0 .5.5h7c.822 0 1.5-.678 1.5-1.5V11.507c0-.652-1-.676-1 0V26.5c0 .286-.214.5-.5.5H20v-6.997c0-2.76-2.24-4.997-5-4.997s-5 2.237-5 4.997V27H3.5a.488.488 0 0 1-.5-.5v-15a.487.487 0 0 0-.5-.5z"/></symbol><symbol viewBox="0 0 24 24" fill="none" id="list" xmlns="http://www.w3.org/2000/svg"><path fill-rule="evenodd" clip-rule="evenodd" d="M3.25 7A.75.75 0 0 1 4 6.25h16a.75.75 0 0 1 0 1.5H4A.75.75 0 0 1 3.25 7Zm0 5a.75.75 0 0 1 .75-.75h11a.75.75 0 0 1 0 1.5H4a.75.75 0 0 1-.75-.75Zm0 5a.75.75 0 0 1 .75-.75h5a.75.75 0 0 1 0 1.5H4a.75.75 0 0 1-.75-.75Z" fill="#1C274C"/></symbol><symbol viewBox="0 0 512 512" xml:space="preserve" id="list-attestation" xmlns="http://www.w3.org/2000/svg"><path d="M163.136 68.008H349.2v16H163.136zM163.136 115.384H512v16H163.136zM0 48.232v102.944h101.36V48.232H0zm85.36 86.928H16V64.232h69.36v70.928zM163.136 224.312H349.2v16H163.136zM163.136 271.672H512v16H163.136zM0 204.52v102.944h101.36V204.52H0zm85.36 86.944H16V220.52h69.36v70.944zM163.136 380.6H349.2v16H163.136zM163.136 427.976H512v16H163.136zM0 360.824v102.944h101.36V360.824H0zm85.36 86.928H16v-70.944h69.36v70.944z"/></symbol><symbol viewBox="0 0 16 16" class="jbi jbi-collection" id="list-credit" xmlns="http://www.w3.org/2000/svg"><path d="M2.5 3.5a.5.5 0 0 1 0-1h11a.5.5 0 0 1 0 1h-11zm2-2a.5.5 0 0 1 0-1h7a.5.5 0 0 1 0 1h-7zM0 13a1.5 1.5 0 0 0 1.5 1.5h13A1.5 1.5 0 0 0 16 13V6a1.5 1.5 0 0 0-1.5-1.5h-13A1.5 1.5 0 0 0 0 6v7zm1.5.5A.5.5 0 0 1 1 13V6a.5.5 0 0 1 .5-.5h13a.5.5 0 0 1 .5.5v7a.5.5 0 0 1-.5.5h-13z"/></symbol><symbol fill="currentColor" viewBox="0 0 154 42" id="logo_meck_moroni" xmlns="http://www.w3.org/2000/svg"><defs><clipPath id="ma" clipPathUnits="userSpaceOnUse" clip-rule="evenodd"><path d="M-.267-.484h37.44v9.647H-.267Z"/></clipPath></defs><path fill="#fff" fill-rule="evenodd" stroke="#000" stroke-width=".535" d="M1.767 36.824 20.044 9.331l18.048 27.258c.743.87.145 2.335-.75 2.324l-34.518.22c-1.432-.51-1.505-1.348-1.057-2.309Z"/><path fill="#fff" fill-rule="evenodd" stroke="#000" stroke-width=".535" d="M20.456 37.55c-5.473-.003-11.065-3.36-13.817-9.525l-.64-17.938 13.88 8.114 13.881-7.793-.641 17.83c-2.483 6.36-7.52 9.314-12.663 9.313Zm-.367 4.405c8.327-.108 16.604-5.391 17.727-15.959l-.192-18.168 1.101-.036.586-.59V5.177l-6.086.105-13.453 8.33L6.975 5.665l-6.67-.148L.27 7.452l.494.545L1.8 7.943l.163 11.917-.023 6.03c.907 10.78 9.555 16.177 18.148 16.065Z"/><g transform="translate(1.523 9.33)" clip-path="url(#ma)"><path fill="#fff" fill-rule="evenodd" stroke="#000" stroke-width=".535" d="M.244 27.493 18.521 0 36.57 27.259c.743.869.146 2.334-.75 2.324l-34.518.22c-1.432-.511-1.505-1.348-1.057-2.31Z"/></g><path fill-rule="evenodd" d="m17.067 0 .209.665.081.248.258.002.689-.004-.56.406-.207.155.078.248.217.663-.556-.414-.21-.152-.209.152-.556.414.218-.663.077-.248-.207-.155-.56-.406.69.004.257-.002.081-.248ZM23.46.061l.083.694.034.258.252.048.679.124-.627.296-.23.114.029.258.09.692-.469-.509-.177-.19-.235.111-.622.304.336-.612.122-.229-.174-.19-.475-.503.676.132.253.046.127-.229ZM29.272 1.952l-.123.685-.042.259.226.12.614.316-.686.1-.254.041-.047.256-.115.688-.3-.624-.116-.232-.256.038-.684.109.5-.487.184-.184-.112-.233-.308-.619.61.323.228.117.188-.181ZM10.75 2.18l.489.499.184.184.23-.115.612-.316-.314.616-.114.232.182.185.493.492-.683-.116-.256-.041-.117.23-.308.62-.107-.687-.044-.258-.254-.044-.683-.108.616-.309.23-.117-.04-.259ZM19.365 41.58c.087.072.214.12.354.141V16.555c-3.196.413-5.859 4.694-1.059 7.622-2.14 3.218-5.344 2.895-7.225 1.108-1.466-1.388-2.13-3.665-.88-5.848 3.152-3.924 6.02-7.4 9.164-11.301V3.681c-.354.083-.711.311-1.048.688C16 7.39 6.36 17.96 3.705 21.047c-.446.521-.918 1.269-.961 1.833-.043.57.385 1.176.705 1.572C6.176 27.793 16.688 38.7 19.343 41.555l.022.025Zm.843.121a.934.934 0 0 0 .475-.238c2.884-2.91 13.293-13.974 15.981-17.356.767-.96.695-2.128-.061-2.924C33.68 18.084 24.73 7.983 21.17 4.224c-.299-.353-.655-.55-1.034-.579l-.002 4.426c3.225 3.95 6.514 7.288 9.698 12.33 2.572 4.074-4.88 8.906-8.234 3.964-.376-.376 3.838-2.144 2.257-5.308-.925-1.852-2.344-2.56-3.72-2.53v25.188c.024-.004.048-.007.072-.014ZM68.337 25.393a11.02 11.02 0 0 0 1.528-.157l.9-.34.95-2.163c-.368.359-.944.563-1.726.61l-1.784.113c-.37-.15-.649-.348-.754-.655-.146-.398-.167-.83-.102-1.281l4.636-.004c.022-1.25-.26-2.86-1.02-3.8-.56-.62-1.26-1.067-2.32-1.16-1.358-.137-2.289.188-3.021.73a5.373 5.373 0 0 0-1.379 2.71c-.157 1.39.043 2.507.567 3.583.507.802 1.124 1.433 1.996 1.658a6.084 6.084 0 0 0 1.53.156Zm1.028-5.177h-2.52c.047-.88.239-1.648 1.28-1.8.778.012 1.144.695 1.24 1.8ZM47.597 12.845l5.291.002.064 1.188 2.912 4.014 3.105-4.256.05-.93 4.073-.003v1.021l-.676.998-.1 10.43-3.672.098.245-6.954-2.594 3.722-.883-.098-2.74-4.016.097 7.198h-3.576l.003-10.564ZM80.201 22.867l-.72 2.289c-.909.601-3.761.725-5.297-.721-2.568-2.283-.501-6.802 1.15-7.266a5.354 5.354 0 0 1 2.206-.442c1.317.054 1.59.142 2.48.44l-.15 2.684c-.798-.987-1.729-.996-2.143-.996-1.626-.202-3.164 6.47 2.474 4.012ZM81.05 13.633l3.347-.669-.182 6.943 2.313-2.408-.161-.703.709-.007h3.253l-3.828 3.923 4.099 4.687h-3.545l-2.84-2.134V25.4h-3.219ZM96.733 12.995l5.291.001.064 1.188L105 18.199l3.105-4.256.05-.931 4.073-.003v1.022l-.676.997-.1 10.43-3.672.098.245-6.953-2.594 3.721-.883-.097-2.74-4.016.097 7.197H98.33l.003-10.564ZM118.696 25.327c-1.382.3-2.497-.122-3.49-.759-.994-.636-1.608-1.504-1.847-2.601-.253-1.17-.041-2.239.641-3.214.682-.968 1.702-1.601 3.064-1.897 1.37-.297 2.556-.148 3.56.445 1.007.595 1.635 1.474 1.887 2.632.255 1.178.045 2.252-.632 3.226-.676.973-1.787 1.865-3.183 2.168Zm-.572-2.182c1.019.48 1.423-1.202 1.151-2.066-1.037-2.139-2.465-2.199-2.68-1.608-.27 1.342.796 3.305 1.53 3.674ZM127.09 25.304h-3.135l.057-8.445 3.235.077-.03 1.316.093.008c.434-.875.877-1.09 1.785-1.304.107 0 .725.043 1.035.075l-.69 2.506c-.422-.048-1.3-.022-1.14-.022-.609.154-1.146.404-1.178.806ZM149.218 25.227l-3.511.033.017-5.153c0-.344-.05-.556-.146-.638a.57.57 0 0 0-.378-.121c-.468 0-.705.327-.705.976l-.041 5.032-3.448-.033-.031-8.419 3.29-.032-.005 1.348c.043-.143.244-.05.348-.11.38-.215.376-1.266 1.914-1.186.618 0 1.13.127 1.568.352.434.227.668.585.856.944.186.357.281.957.281 1.805ZM154 16.715v8.682H150.5v-8.682ZM135.733 25.327c-1.382.3-2.497-.122-3.492-.759-.992-.636-1.606-1.504-1.845-2.601-.255-1.17-.041-2.239.641-3.214.682-.968 1.702-1.601 3.064-1.897 1.37-.297 2.556-.148 3.56.445 1.006.595 1.635 1.474 1.887 2.632.255 1.178.045 2.252-.632 3.226-.677.973-1.788 1.865-3.183 2.168Zm-.572-2.182c1.019.48 1.423-1.202 1.15-2.066-1.036-2.139-2.464-2.199-2.679-1.608-.27 1.342.795 3.305 1.53 3.674ZM152.25 12.187a2.002 2.002 0 1 1 0 4.005 2.002 2.002 0 1 1 0-4.005ZM91.232 19.555l.757.1 3.366.036.717-.136v2.433l-.701-.099h-3.468l-.671.099Z"/><path fill="#000" fill-rule="evenodd" d="M49.013 30.761v-3.344h.664l.787 2.368c.072.22.125.384.159.495.037-.123.097-.3.177-.536l.797-2.327h.595v3.344h-.425v-2.797l-.971 2.797H50.4l-.96-2.845v2.845ZM54.421 30.761v-.357a.883.883 0 0 1-.764.412.975.975 0 0 1-.398-.083.675.675 0 0 1-.275-.206.786.786 0 0 1-.125-.304 2.196 2.196 0 0 1-.024-.384v-1.503h.405v1.344c0 .215.01.36.025.435a.42.42 0 0 0 .164.253.487.487 0 0 0 .308.093.67.67 0 0 0 .346-.094.52.52 0 0 0 .229-.259c.044-.108.067-.265.067-.473v-1.299h.406v2.425ZM56.321 30.393l.055.363a1.52 1.52 0 0 1-.308.036.688.688 0 0 1-.345-.07.403.403 0 0 1-.172-.186c-.034-.077-.05-.239-.05-.485v-1.396H55.2v-.319h.302v-.599l.406-.246v.845h.414v.319h-.414v1.42c0 .118.008.193.022.226a.17.17 0 0 0 .071.08.29.29 0 0 0 .141.03c.046 0 .106-.007.18-.018ZM58.3 30.761v-.357a.883.883 0 0 1-.764.412.975.975 0 0 1-.399-.083.675.675 0 0 1-.274-.206.786.786 0 0 1-.126-.304 2.196 2.196 0 0 1-.024-.384v-1.503h.406v1.344c0 .215.009.36.025.435a.42.42 0 0 0 .164.253.487.487 0 0 0 .308.093.67.67 0 0 0 .345-.094.52.52 0 0 0 .23-.259c.044-.108.066-.265.066-.473v-1.299h.407v2.425ZM60.959 29.979l.42.054c-.067.248-.19.44-.37.578-.178.137-.409.205-.688.205-.352 0-.632-.11-.837-.328-.207-.219-.31-.524-.31-.919 0-.408.105-.724.313-.949.209-.227.478-.337.812-.337.321 0 .584.109.788.329.204.22.305.53.305.93l-.001.11h-1.799c.016.265.09.47.225.613.135.14.303.212.506.212a.63.63 0 0 0 .384-.118.806.806 0 0 0 .252-.38Zm-1.343-.666h1.347c-.019-.202-.07-.354-.155-.457a.63.63 0 0 0-.507-.236.645.645 0 0 0-.473.19.74.74 0 0 0-.212.503ZM61.892 30.761v-3.344h.405v3.344ZM62.921 30.761v-3.344h.406v3.344ZM65.607 29.979l.42.054c-.067.248-.19.44-.37.578-.178.137-.409.205-.688.205-.352 0-.632-.11-.837-.328-.207-.219-.31-.524-.31-.919 0-.408.105-.724.313-.949.209-.227.478-.337.812-.337.321 0 .584.109.788.329.204.22.305.53.305.93l-.001.11H64.24c.016.265.09.47.225.613.135.14.303.212.506.212a.63.63 0 0 0 .384-.118.806.806 0 0 0 .252-.38Zm-1.343-.666h1.347c-.019-.202-.07-.354-.155-.457a.63.63 0 0 0-.507-.236.645.645 0 0 0-.473.19.74.74 0 0 0-.212.503ZM69.395 30.761v-.306a.746.746 0 0 1-.674.361.935.935 0 0 1-.53-.161 1.047 1.047 0 0 1-.374-.444 1.548 1.548 0 0 1-.133-.66c0-.242.04-.462.12-.659a.97.97 0 0 1 .361-.453.967.967 0 0 1 .538-.156.797.797 0 0 1 .665.33v-1.196h.407v3.344Zm-1.292-1.212c0 .311.065.543.196.698.13.153.285.23.462.23.18 0 .332-.074.458-.22.125-.148.188-.372.188-.673 0-.332-.064-.575-.192-.73a.588.588 0 0 0-.93-.01c-.121.15-.182.385-.182.705ZM70.4 27.857v-.474h.437v.378c0 .203-.022.348-.069.439a.635.635 0 0 1-.303.277l-.1-.162a.348.348 0 0 0 .182-.159.683.683 0 0 0 .066-.299ZM71.515 30.761v-3.344h2.404v.394h-1.963v1.024h1.839v.393h-1.839v1.14h2.04v.393ZM74.55 31.688v-3.352h.371v.316a.923.923 0 0 1 .298-.277.815.815 0 0 1 .401-.092.936.936 0 0 1 .9.609c.08.195.12.408.12.639 0 .248-.044.472-.132.67a1 1 0 0 1-.387.455.977.977 0 0 1-.532.16.771.771 0 0 1-.366-.087.852.852 0 0 1-.267-.22v1.179Zm.367-2.125c0 .31.063.541.188.69a.578.578 0 0 0 .923-.008c.13-.154.195-.393.195-.716 0-.309-.064-.54-.19-.694a.57.57 0 0 0-.453-.23c-.173 0-.328.082-.461.244-.135.164-.202.403-.202.714ZM78.715 30.459c-.151.129-.298.222-.438.276-.14.054-.29.081-.452.081-.265 0-.469-.065-.612-.196a.642.642 0 0 1-.213-.497c0-.119.027-.228.081-.326a.668.668 0 0 1 .211-.236c.088-.058.185-.104.295-.134.08-.022.202-.043.364-.062.33-.04.574-.086.73-.141l.003-.108c0-.168-.039-.287-.116-.355-.105-.094-.261-.141-.468-.141-.193 0-.336.033-.428.103-.092.068-.16.188-.204.361l-.399-.055a.993.993 0 0 1 .18-.417.799.799 0 0 1 .362-.245c.157-.056.34-.084.548-.084.206 0 .374.024.504.072.128.048.222.11.284.184.06.073.102.168.126.28.014.069.022.196.022.378v.548c0 .38.008.622.024.724.017.102.05.199.098.292h-.425a.96.96 0 0 1-.077-.302Zm-.035-.912c-.148.06-.372.112-.668.154a1.614 1.614 0 0 0-.357.082.352.352 0 0 0-.218.328c0 .109.042.2.124.272.083.074.204.11.363.11a.834.834 0 0 0 .421-.105.636.636 0 0 0 .271-.283c.044-.092.065-.229.065-.408ZM79.723 30.761v-2.425h.364v.368c.094-.172.181-.285.261-.34a.453.453 0 0 1 .263-.081c.138 0 .278.042.421.13l-.141.38a.6.6 0 0 0-.3-.086c-.09 0-.17.026-.24.08a.442.442 0 0 0-.154.225 1.606 1.606 0 0 0-.068.48v1.27ZM81.203 30.96l.398.055c.016.124.062.216.138.273a.675.675 0 0 0 .414.115c.188 0 .335-.038.438-.114a.558.558 0 0 0 .208-.317c.021-.084.03-.259.029-.525a.841.841 0 0 1-.667.314c-.33 0-.586-.121-.769-.361-.18-.241-.27-.53-.27-.865 0-.231.04-.444.123-.64.084-.195.204-.347.362-.452a.964.964 0 0 1 .557-.16c.284 0 .519.116.703.349v-.296h.376v2.093c0 .379-.039.646-.115.803a.828.828 0 0 1-.363.372c-.165.093-.369.139-.61.139-.288 0-.52-.066-.696-.196-.178-.131-.263-.326-.256-.587Zm.336-1.455c0 .319.062.551.189.699a.597.597 0 0 0 .472.217.605.605 0 0 0 .472-.216c.127-.146.19-.374.19-.685 0-.297-.065-.521-.195-.673a.607.607 0 0 0-.474-.227.593.593 0 0 0-.464.224c-.126.148-.19.37-.19.661ZM83.865 30.761v-2.425h.364v.344c.178-.265.434-.397.768-.397.146 0 .279.025.4.077a.635.635 0 0 1 .274.207c.06.085.102.186.126.304.016.077.024.209.024.4v1.49h-.406v-1.476c0-.168-.016-.293-.048-.376a.39.39 0 0 0-.17-.198.527.527 0 0 0-.285-.075.664.664 0 0 0-.45.167c-.126.11-.19.321-.19.633v1.325ZM88.105 29.979l.42.054c-.066.248-.189.44-.369.578-.179.137-.41.205-.688.205-.352 0-.632-.11-.837-.328-.207-.219-.31-.524-.31-.919 0-.408.104-.724.312-.949.21-.227.479-.337.812-.337.322 0 .584.109.788.329.204.22.306.53.306.93 0 .025 0 .06-.002.11H86.74c.016.265.09.47.225.613.135.14.303.212.505.212a.63.63 0 0 0 .384-.118.806.806 0 0 0 .252-.38Zm-1.342-.666h1.346c-.018-.202-.069-.354-.154-.457a.63.63 0 0 0-.507-.236.645.645 0 0 0-.473.19.74.74 0 0 0-.212.503ZM91.983 29.979l.42.054c-.067.248-.19.44-.37.578-.178.137-.409.205-.688.205-.352 0-.632-.11-.837-.328-.207-.219-.31-.524-.31-.919 0-.408.105-.724.313-.949.209-.227.478-.337.812-.337.321 0 .584.109.788.329.204.22.305.53.305.93l-.001.11h-1.799c.016.265.09.47.225.613.135.14.303.212.506.212a.63.63 0 0 0 .384-.118.806.806 0 0 0 .252-.38Zm-1.343-.666h1.347c-.019-.202-.07-.354-.155-.457a.63.63 0 0 0-.507-.236.645.645 0 0 0-.473.19.74.74 0 0 0-.212.503ZM93.813 30.393l.055.363a1.52 1.52 0 0 1-.308.036.688.688 0 0 1-.345-.07.403.403 0 0 1-.172-.186c-.034-.077-.05-.239-.05-.485v-1.396h-.302v-.319h.302v-.599l.406-.246v.845h.414v.319H93.4v1.42c0 .118.008.193.022.226a.17.17 0 0 0 .071.08.29.29 0 0 0 .141.03c.046 0 .106-.007.18-.018ZM97.06 30.761v-.306a.746.746 0 0 1-.673.361.935.935 0 0 1-.531-.161 1.047 1.047 0 0 1-.373-.444 1.548 1.548 0 0 1-.134-.66c0-.242.04-.462.12-.659a.97.97 0 0 1 .362-.453.967.967 0 0 1 .537-.156.797.797 0 0 1 .665.33v-1.196h.407v3.344Zm-1.292-1.212c0 .311.065.543.196.698.13.153.285.23.463.23.18 0 .332-.074.457-.22.125-.148.188-.372.188-.673 0-.332-.064-.575-.192-.73a.588.588 0 0 0-.93-.01c-.12.15-.182.385-.182.705ZM99.737 29.979l.42.054c-.066.248-.189.44-.369.578-.179.137-.41.205-.688.205-.352 0-.632-.11-.837-.328-.207-.219-.31-.524-.31-.919 0-.408.104-.724.312-.949.21-.227.479-.337.812-.337.322 0 .584.109.788.329.204.22.306.53.306.93 0 .025 0 .06-.002.11h-1.798c.016.265.09.47.225.613.135.14.303.212.505.212a.63.63 0 0 0 .384-.118.806.806 0 0 0 .252-.38Zm-1.342-.666h1.346c-.018-.202-.069-.354-.154-.457a.63.63 0 0 0-.507-.236.645.645 0 0 0-.473.19.74.74 0 0 0-.212.503ZM104.393 29.587l.442.113c-.092.363-.259.639-.499.83-.24.191-.533.286-.88.286-.359 0-.65-.073-.875-.22a1.367 1.367 0 0 1-.513-.637 2.285 2.285 0 0 1-.176-.896c0-.348.067-.652.199-.912.132-.259.321-.455.565-.59.244-.134.513-.202.807-.202.332 0 .612.085.84.256.226.17.384.409.473.717l-.433.103c-.078-.244-.19-.42-.336-.532a.903.903 0 0 0-.554-.166c-.256 0-.469.062-.641.184a.988.988 0 0 0-.363.496c-.069.208-.104.423-.104.643 0 .284.042.532.124.745.083.212.211.37.384.476.175.104.363.158.566.158a.946.946 0 0 0 .626-.215c.172-.144.287-.356.348-.637ZM105.319 30.761v-2.425h.364v.368c.095-.172.181-.285.261-.34a.453.453 0 0 1 .263-.081c.139 0 .279.042.421.13l-.141.38a.6.6 0 0 0-.3-.086c-.09 0-.17.026-.24.08a.442.442 0 0 0-.153.225 1.606 1.606 0 0 0-.068.48v1.27ZM108.521 29.979l.42.054c-.067.248-.19.44-.37.578-.178.137-.409.205-.687.205-.352 0-.632-.11-.838-.328-.206-.219-.309-.524-.309-.919 0-.408.104-.724.312-.949.21-.227.479-.337.812-.337.321 0 .584.109.788.329.204.22.305.53.305.93l-.001.11h-1.799c.016.265.091.47.226.613.134.14.302.212.505.212a.63.63 0 0 0 .384-.118.806.806 0 0 0 .252-.38Zm-1.343-.666h1.347c-.019-.202-.07-.354-.155-.457a.63.63 0 0 0-.506-.236.645.645 0 0 0-.474.19.74.74 0 0 0-.212.503Zm.344-1.276.299-.638h.537l-.498.638ZM111.022 30.761v-.306a.746.746 0 0 1-.674.361.935.935 0 0 1-.53-.161 1.047 1.047 0 0 1-.374-.444 1.548 1.548 0 0 1-.133-.66c0-.242.04-.462.12-.659a.97.97 0 0 1 .361-.453.967.967 0 0 1 .538-.156.797.797 0 0 1 .665.33v-1.196h.407v3.344Zm-1.292-1.212c0 .311.065.543.196.698.13.153.285.23.462.23.18 0 .332-.074.458-.22.125-.148.188-.372.188-.673 0-.332-.064-.575-.192-.73a.588.588 0 0 0-.93-.01c-.121.15-.182.385-.182.705ZM112.053 27.884v-.467h.407v.467Zm0 2.877v-2.425h.407v2.425ZM113.97 30.393l.054.363a1.52 1.52 0 0 1-.308.036.688.688 0 0 1-.345-.07.403.403 0 0 1-.172-.186c-.033-.077-.05-.239-.05-.485v-1.396h-.302v-.319h.303v-.599l.405-.246v.845h.415v.319h-.415v1.42c0 .118.008.193.023.226a.17.17 0 0 0 .07.08.29.29 0 0 0 .142.03c.045 0 .105-.007.18-.018ZM115.637 31.693l-.046-.381c.089.024.166.036.233.036a.445.445 0 0 0 .219-.045.36.36 0 0 0 .133-.128c.027-.042.068-.143.125-.307l.036-.1-.913-2.432h.44l.5 1.4c.065.176.123.363.175.559a5.97 5.97 0 0 1 .169-.544l.516-1.415h.41l-.918 2.465c-.097.266-.175.45-.23.55a.803.803 0 0 1-.249.296.585.585 0 0 1-.336.096.845.845 0 0 1-.264-.05ZM119.562 30.459c-.151.129-.298.222-.438.276-.14.054-.29.081-.452.081-.265 0-.469-.065-.612-.196a.642.642 0 0 1-.213-.497c0-.119.027-.228.081-.326a.668.668 0 0 1 .211-.236c.088-.058.185-.104.295-.134.08-.022.202-.043.364-.062.33-.04.574-.086.73-.141l.003-.108c0-.168-.039-.287-.116-.355-.105-.094-.261-.141-.468-.141-.193 0-.336.033-.428.103-.092.068-.16.188-.204.361l-.399-.055a.993.993 0 0 1 .18-.417.799.799 0 0 1 .362-.245c.157-.056.34-.084.548-.084.206 0 .374.024.504.072.128.048.222.11.284.184.06.073.102.168.126.28.014.069.022.196.022.378v.548c0 .38.008.622.024.724.017.102.05.199.098.292h-.425a.96.96 0 0 1-.077-.302Zm-.035-.912c-.148.06-.372.112-.668.154a1.614 1.614 0 0 0-.357.082.352.352 0 0 0-.218.328c0 .109.042.2.124.272.083.074.204.11.363.11a.834.834 0 0 0 .421-.105.636.636 0 0 0 .271-.283c.044-.092.065-.229.065-.408ZM121.896 30.761v-3.344h.441v1.654l1.65-1.654h.596l-1.394 1.356 1.456 1.988h-.581l-1.183-1.688-.544.528v1.16ZM124.808 29.55c0-.45.124-.782.372-1 .207-.178.459-.267.756-.267.33 0 .6.108.81.326.21.219.315.52.315.906 0 .312-.046.557-.14.736a.983.983 0 0 1-.405.416c-.177.1-.37.149-.58.149-.337 0-.61-.11-.816-.327-.208-.217-.312-.53-.312-.94Zm.419-.002c0 .31.066.543.201.697a.65.65 0 0 0 .508.232c.203 0 .37-.078.505-.233.135-.155.202-.392.202-.71 0-.3-.067-.527-.203-.682a.645.645 0 0 0-.504-.232.652.652 0 0 0-.508.23c-.135.155-.201.387-.201.698ZM127.548 30.761v-2.425h.364v.339a.848.848 0 0 1 .73-.392c.18 0 .325.036.44.11a.59.59 0 0 1 .24.312c.193-.282.442-.422.749-.422.24 0 .425.065.554.2.128.132.194.337.194.614v1.664h-.407v-1.528a1.14 1.14 0 0 0-.04-.357.34.34 0 0 0-.145-.173.44.44 0 0 0-.247-.067.572.572 0 0 0-.424.17c-.113.113-.17.295-.17.545v1.41h-.406v-1.577c0-.183-.033-.32-.1-.41-.067-.093-.176-.138-.328-.138a.576.576 0 0 0-.319.092.51.51 0 0 0-.213.267 1.516 1.516 0 0 0-.065.508v1.258ZM131.26 29.55c0-.45.124-.782.372-1 .207-.178.459-.267.756-.267.33 0 .6.108.81.326.21.219.315.52.315.906 0 .312-.046.557-.14.736a.983.983 0 0 1-.405.416c-.177.1-.37.149-.58.149-.337 0-.61-.11-.816-.327-.208-.217-.312-.53-.312-.94Zm.419-.002c0 .31.066.543.201.697a.65.65 0 0 0 .508.232c.203 0 .37-.078.505-.233.135-.155.202-.392.202-.71 0-.3-.067-.527-.203-.682a.645.645 0 0 0-.504-.232.652.652 0 0 0-.508.23c-.135.155-.201.387-.201.698ZM133.995 30.761v-2.425h.364v.368c.095-.172.181-.285.261-.34a.453.453 0 0 1 .263-.081c.139 0 .279.042.421.13l-.141.38a.6.6 0 0 0-.3-.086c-.09 0-.17.026-.24.08a.442.442 0 0 0-.153.225 1.606 1.606 0 0 0-.068.48v1.27ZM136.677 29.757v-.413h1.255v.413ZM139.711 30.761v-3.344h.664l.787 2.368c.072.22.125.384.158.495.038-.123.098-.3.178-.536l.797-2.327h.595v3.344h-.426v-2.797l-.97 2.797h-.396l-.96-2.845v2.845ZM143.388 29.55c0-.45.124-.782.372-1 .207-.178.459-.267.756-.267.33 0 .6.108.81.326.21.219.315.52.315.906 0 .312-.046.557-.14.736a.983.983 0 0 1-.405.416c-.177.1-.37.149-.58.149-.337 0-.61-.11-.816-.327-.208-.217-.312-.53-.312-.94Zm.419-.002c0 .31.066.543.201.697a.65.65 0 0 0 .508.232c.203 0 .37-.078.505-.233.135-.155.202-.392.202-.71 0-.3-.067-.527-.203-.682a.645.645 0 0 0-.504-.232.652.652 0 0 0-.508.23c-.135.155-.201.387-.201.698ZM146.123 30.761v-2.425h.364v.368c.095-.172.181-.285.261-.34a.453.453 0 0 1 .263-.081c.139 0 .279.042.421.13l-.141.38a.6.6 0 0 0-.3-.086c-.09 0-.17.026-.24.08a.442.442 0 0 0-.153.225 1.606 1.606 0 0 0-.068.48v1.27ZM147.525 29.55c0-.45.124-.782.372-1 .207-.178.459-.267.756-.267.33 0 .6.108.81.326.21.219.315.52.315.906 0 .312-.046.557-.14.736a.983.983 0 0 1-.405.416c-.177.1-.37.149-.58.149-.337 0-.61-.11-.816-.327-.208-.217-.312-.53-.312-.94Zm.419-.002c0 .31.066.543.201.697a.65.65 0 0 0 .508.232c.203 0 .37-.078.505-.233.135-.155.202-.392.202-.71 0-.3-.067-.527-.203-.682a.645.645 0 0 0-.504-.232.652.652 0 0 0-.508.23c-.135.155-.201.387-.201.698ZM150.264 30.761v-2.425h.364v.344c.177-.265.433-.397.768-.397.145 0 .279.025.4.077a.635.635 0 0 1 .273.207c.06.085.103.186.127.304.016.077.024.209.024.4v1.49h-.407v-1.476c0-.168-.016-.293-.048-.376a.39.39 0 0 0-.169-.198.527.527 0 0 0-.285-.075.664.664 0 0 0-.451.167c-.125.11-.19.321-.19.633v1.325ZM152.859 27.884v-.467h.407v.467Zm0 2.877v-2.425h.407v2.425Z"/></symbol><symbol viewBox="0 0 520 520" xml:space="preserve" id="logout" xmlns="http://www.w3.org/2000/svg"><path d="M301.697 491.922H90.785c-11.025 0-21.029-9.649-21.029-20.669V39.39c0-11.02 10.005-19.311 21.029-19.311h210.912c5.544 0 10.039-4.49 10.039-10.039 0-5.55-4.496-10.04-10.039-10.04H90.785C68.692 0 49.677 17.292 49.677 39.39v431.863C49.677 493.35 68.692 512 90.785 512h210.912c5.544 0 10.039-4.49 10.039-10.039s-4.496-10.039-10.039-10.039z"/><path d="m459.745 243.586-90.353-100.392c-3.711-4.127-10.059-4.451-14.176-.745-4.123 3.706-4.456 10.4-.745 14.517l75.272 83.976H201.304a10.036 10.036 0 0 0-10.039 10.039 10.036 10.036 0 0 0 10.039 10.039h226.745l-73.216 72.877c-3.922 3.922-3.922 10.103 0 14.025 1.961 1.961 4.529 2.858 7.098 2.858s5.137-1.022 7.098-2.983l90.353-90.375c3.775-3.775 3.937-9.866.363-13.836z"/></symbol><symbol viewBox="0 0 36 36" id="notification" xmlns="http://www.w3.org/2000/svg"><path class="nclr-i-outline nclr-i-outline-path-1" d="M32.51 27.83A14.4 14.4 0 0 1 30 24.9a12.63 12.63 0 0 1-1.35-4.81v-4.94A10.81 10.81 0 0 0 19.21 4.4V3.11a1.33 1.33 0 1 0-2.67 0v1.31a10.81 10.81 0 0 0-9.33 10.73v4.94a12.63 12.63 0 0 1-1.35 4.81 14.4 14.4 0 0 1-2.47 2.93 1 1 0 0 0-.34.75v1.36a1 1 0 0 0 1 1h27.8a1 1 0 0 0 1-1v-1.36a1 1 0 0 0-.34-.75ZM5.13 28.94a16.17 16.17 0 0 0 2.44-3 14.24 14.24 0 0 0 1.65-5.85v-4.94a8.74 8.74 0 1 1 17.47 0v4.94a14.24 14.24 0 0 0 1.65 5.85 16.17 16.17 0 0 0 2.44 3Z"/><path class="nclr-i-outline nclr-i-outline-path-2" d="M18 34.28A2.67 2.67 0 0 0 20.58 32h-5.26A2.67 2.67 0 0 0 18 34.28Z"/><path fill="none" d="M0 0h36v36H0z"/></symbol><symbol viewBox="0 0 64 64" fill="none" stroke="#000" id="result-search" xmlns="http://www.w3.org/2000/svg"><circle cx="28" cy="28" r="20"/><path d="M56 56 42.14 42.14"/></symbol><symbol viewBox="0 0 24 24" fill="none" id="search" xmlns="http://www.w3.org/2000/svg"><path opacity=".4" d="M14 5h6M14 8h3" stroke="#292D32" stroke-width="1.5" stroke-linecap="round" stroke-linejoin="round"/><path d="M21 11.5c0 5.25-4.25 9.5-9.5 9.5S2 16.75 2 11.5 6.25 2 11.5 2" stroke="#292D32" stroke-width="1.5" stroke-linecap="round" stroke-linejoin="round"/><path opacity=".4" d="m22 22-2-2" stroke="#292D32" stroke-width="1.5" stroke-linecap="round" stroke-linejoin="round"/></symbol><symbol fill="transparent" stroke-width="2" viewBox="0 0 45 45" id="settings" xmlns="http://www.w3.org/2000/svg"><path d="M39.23 26a16.52 16.52 0 0 0 .14-2 16.52 16.52 0 0 0-.14-2l4.33-3.39a1 1 0 0 0 .25-1.31l-4.1-7.11a1 1 0 0 0-1.25-.44l-5.11 2.06a15.68 15.68 0 0 0-3.46-2l-.77-5.43a1 1 0 0 0-1-.86H19.9a1 1 0 0 0-1 .86l-.77 5.43a15.36 15.36 0 0 0-3.46 2L9.54 9.75a1 1 0 0 0-1.25.44l-4.1 7.11a1 1 0 0 0 .25 1.31L8.76 22a16.66 16.66 0 0 0-.14 2 16.52 16.52 0 0 0 .14 2l-4.32 3.39a1 1 0 0 0-.25 1.31l4.1 7.11a1 1 0 0 0 1.25.44l5.11-2.06a15.68 15.68 0 0 0 3.46 2l.77 5.43a1 1 0 0 0 1 .86h8.2a1 1 0 0 0 1-.86l.77-5.43a15.36 15.36 0 0 0 3.46-2l5.11 2.06a1 1 0 0 0 1.25-.44l4.1-7.11a1 1 0 0 0-.25-1.31ZM24 31.18A7.18 7.18 0 1 1 31.17 24 7.17 7.17 0 0 1 24 31.18Z" style="stroke:#000;stroke-linecap:round;stroke-linejoin:round"/></symbol><symbol viewBox="0 0 100 100" id="sprite" xmlns="http://www.w3.org/2000/svg"/><symbol viewBox="0 0 31 31" id="theme" xmlns="http://www.w3.org/2000/svg"><path d="M9.882 5.052a12.558 12.558 0 0 0-1.295 5.564c0 6.977 5.676 12.653 12.653 12.653 2.052 0 4.035-.489 5.812-1.412a12.389 12.389 0 0 1-10.862 6.37c-6.866 0-12.451-5.585-12.451-12.451 0-4.491 2.409-8.533 6.143-10.724zm2.908-2.345C6.973 4.216 2.672 9.487 2.672 15.776c0 7.465 6.053 13.517 13.518 13.517 6.387 0 11.726-4.435 13.139-10.389a11.535 11.535 0 0 1-8.088 3.298c-6.399 0-11.587-5.188-11.587-11.587 0-3.061 1.196-5.838 3.137-7.909z"/></symbol><symbol viewBox="0 0 23 23" fill="none" id="user-add" xmlns="http://www.w3.org/2000/svg"><circle cx="12" cy="8" r="4" stroke="currentColor" stroke-linecap="round"/><path fill-rule="evenodd" clip-rule="evenodd" d="M15.276 16a10.958 10.958 0 0 0-4.37-.446c-1.64.162-3.191.686-4.456 1.517-1.264.832-2.196 1.943-2.648 3.208a.5.5 0 1 0 .941.336C5.11 19.588 5.885 18.64 7 17.907c1.115-.734 2.508-1.21 4.005-1.358.55-.054 1.103-.063 1.649-.028A1.993 1.993 0 0 1 14 16h1.276Z" fill="currentColor"/><path d="M18 14v8M22 18h-8" stroke="currentColor" stroke-linecap="round"/></symbol><symbol viewBox="0 0 240 240" id="user-circle-gear" xmlns="http://www.w3.org/2000/svg"><path d="m226.249 66.536-7.291-4.21a19.728 19.728 0 0 0 0-12.653l7.29-4.209a4 4 0 0 0-4-6.928l-7.304 4.217A19.986 19.986 0 0 0 204 36.403V28a4 4 0 0 0-8 0v8.403a19.986 19.986 0 0 0-10.944 6.35l-7.305-4.217a4 4 0 0 0-4 6.928l7.291 4.21a19.728 19.728 0 0 0 0 12.653l-7.29 4.209a4 4 0 1 0 4 6.928l7.304-4.217A19.986 19.986 0 0 0 196 75.597V84a4 4 0 0 0 8 0v-8.403a19.986 19.986 0 0 0 10.944-6.35l7.305 4.217a4 4 0 0 0 4-6.928ZM200 68a12 12 0 1 1 12-12 12.014 12.014 0 0 1-12 12Zm22.844 44.528a4 4 0 0 0-3.497 4.446A93.356 93.356 0 0 1 220 128a91.709 91.709 0 0 1-26.829 64.872 75.615 75.615 0 0 0-44.507-34.04 44 44 0 1 0-41.328 0 75.616 75.616 0 0 0-44.507 34.04A91.954 91.954 0 0 1 128 36c2.849 0 5.722.132 8.541.391a4 4 0 1 0 .734-7.966A101.478 101.478 0 0 0 128 28a99.956 99.956 0 0 0-67.29 173.91 3.982 3.982 0 0 0 .842.75 99.794 99.794 0 0 0 132.897 0 3.974 3.974 0 0 0 .84-.75A99.763 99.763 0 0 0 228 128a101.345 101.345 0 0 0-.71-11.974 4.003 4.003 0 0 0-4.446-3.498ZM92 120a36 36 0 1 1 36 36 36.04 36.04 0 0 1-36-36Zm-23.135 78.417a68.011 68.011 0 0 1 118.27 0 91.804 91.804 0 0 1-118.27 0Z"/></symbol></svg>